<svg width="72" height="71" viewBox="0 0 72 71" fill="none" xmlns="http://www.w3.org/2000/svg">
  <path d="M48.264 16.9604L44.0973 15.545L37.0195 19.6546L33.133 26.5732L32.037 32.1751L32.5315 37.6543L36.1557 42.3331L40.8373 44.6191L43.8296 49.175L48.7989 50.2699L53.2057 47.5271L55.6666 40.1759L52.5004 34.6202L46.7023 34.3514L49.4847 28.6088L47.2998 22.8357L48.264 16.9604Z" stroke="#EAEACB" stroke-width="0.508092"/>
  <path d="M5.909 39.3988L6.86547 35.2599L14.25 31.681L22.4274 32.1863L27.9615 34.2635L30.9421 36.13L32.7964 37.9083L35.4453 42.4812L34.3016 48.0153L36.7445 52.8634L35.0793 57.4853L30.3188 59.616L22.5144 57.7219L19.2797 52.2028L22.1145 47.3445L15.5622 46.5644L11.6152 41.7281L5.909 39.3988Z" stroke="#EAEACB" stroke-width="0.508092"/>
  <path d="M32.5629 38.5693L28.5017 38.2489M20.4284 37.5621L13.5444 32.023M20.4284 37.5621C17.2975 37.3383 10.9658 36.8683 10.6858 36.7788M20.4284 37.5621C18.192 38.2895 13.6844 39.7442 13.5444 39.7442C13.4044 39.7442 12.047 40.9751 11.3858 41.5906M20.4284 37.5621L26.4956 38.0657M10.6858 36.7788C10.4057 36.6893 8.23552 35.5106 7.18542 34.9325L10.6858 36.7788ZM10.6858 36.7788L7.18542 39.7442M26.4956 38.0657L21.1284 34.0932L19.2032 32.023M26.4956 38.0657L28.5017 38.2489M28.5017 38.2489L22.0217 41.5906L18.1613 46.9098" stroke="#EAEACB" stroke-width="0.635115"/>
  <path d="M32.9596 37.9845L31.6091 41.8704M28.5376 51.7177L29.8794 59.2711M28.5376 51.7177L27.3708 53.9557L24.6289 55.8021L21.7703 56.0819M28.5376 51.7177L29.8794 46.794M29.8794 46.794L23.5204 51.1023L19.4951 52.2213M29.8794 46.794L31.6091 41.8704M29.8794 46.794L32.6213 52.2213L35.74 55.8021M31.6091 41.8704L25.0373 46.794L21.815 47.3726M36.1536 34.2821L41.117 35.5382M41.117 35.5382L47.1144 33.5548M41.117 35.5382L40.9791 37.9845L39.6693 40.9596" stroke="#EAEACB" stroke-width="0.635115"/>
  <path d="M35.8778 42.0174L38.2905 41.3728M53.5942 37.0588L49.9406 39.4389L48.1828 39.7612M38.2905 41.3728L47.5279 43.1413L52.2844 47.8354M38.2905 41.3728L39.8071 40.8934L46.4249 40.0835M46.4249 40.0835L47.5279 34.6126M46.4249 40.0835L48.1828 39.7612M48.1828 39.7612L54.7661 43.1413" stroke="#EAEACB" stroke-width="0.528909"/>
  <path d="M33.1204 37.8522L37.0165 32.918L37.0497 32.8759M43.8743 24.2328L48.6309 26.8112M43.8743 24.2328L40.979 27.8996M43.8743 24.2328L45.4598 20.1999L48.0104 19.0759M40.979 27.8996L41.3926 22.3155L39.945 17.8859M40.979 27.8996L39.1238 30.2491M39.1238 30.2491L37.3254 32.5267M39.1238 30.2491L44.0122 29.8525L47.8036 31.6375M39.1238 30.2491L37.0497 32.8759M37.3254 32.5267L37.0497 32.8759M37.3254 32.5267L37.1876 28.5302L37.0165 26.0179L35.3263 22.7122" stroke="#EAEACB" stroke-width="0.528909"/>
  <path d="M33.2434 40.0452C34.2411 41.8449 35.2133 43.4382 35.9783 44.5593C36.361 45.1202 36.6909 45.5614 36.9456 45.851C37.0732 45.9962 37.18 46.101 37.2637 46.1637C37.3057 46.1952 37.3391 46.2139 37.3642 46.2228C37.3895 46.2317 37.3987 46.228 37.4006 46.227C37.4025 46.2261 37.4109 46.2208 37.4173 46.1957C37.4237 46.1708 37.4262 46.1337 37.4224 46.0827C37.415 45.9811 37.3842 45.8376 37.3301 45.6549C37.2221 45.2905 37.0252 44.7815 36.7544 44.1636C36.2131 42.9284 35.3794 41.2644 34.3816 39.4647C33.3838 37.665 32.4116 36.0717 31.6467 34.9506C31.264 34.3897 30.9341 33.9485 30.6794 33.6589C30.5517 33.5137 30.4449 33.4089 30.3613 33.3462C30.3193 33.3147 30.2859 33.296 30.2608 33.2871C30.2355 33.2783 30.2262 33.2819 30.2243 33.2829C30.2224 33.2838 30.2141 33.2891 30.2077 33.3142C30.2012 33.3391 30.1988 33.3762 30.2025 33.4272C30.21 33.5288 30.2408 33.6723 30.2949 33.855C30.4028 34.2194 30.5998 34.7284 30.8706 35.3463C31.4119 36.5815 32.2456 38.2455 33.2434 40.0452Z" fill="#EAEACB" stroke="#EAEACB" stroke-width="0.111902"/>
  <path d="M29.5852 33.198C29.5852 33.5049 29.8453 33.7575 30.171 33.7575C30.4968 33.7575 30.7568 33.5049 30.7568 33.198C30.7568 32.8912 30.4968 32.6385 30.171 32.6385C29.8453 32.6385 29.5852 32.8912 29.5852 33.198Z" fill="#363432" stroke="#EAEACB" stroke-width="0.111902"/>
  <path d="M36.5858 45.731C36.5858 46.0378 36.8459 46.2905 37.1716 46.2905C37.4974 46.2905 37.7574 46.0378 37.7574 45.731C37.7574 45.4242 37.4974 45.1715 37.1716 45.1715C36.8459 45.1715 36.5858 45.4242 36.5858 45.731Z" fill="#363432" stroke="#EAEACB" stroke-width="0.111902"/>
</svg>
